# xmcd
#
# Track frame offsets:
#	150
#	13057
#	33856
#	49803
#	62892
#	77257
#	93083
#	109552
#	128644
#	144628
#	157140
#	170311
#	187383
#	203243
#	218260
#	237284
#	254007
#	270667
#	289287
#	304995
#
# Disc length: 4251 seconds
#
# Revision: 2
# Processed by: cddbd v1.5.2PL0 Copyright (c) Steve Scherf et al.
# Submitted via: EasyCDDAExtractor 16.0.6.1
#
DISCID=1e109914
DTITLE=James Carr - A Man Worth Knowing - The 1990s Goldwax and Soultrax Recordi
DTITLE=ngs
DYEAR=2006
DGENRE=Soul
TTITLE0=You're Pouring Water on a Drowning Man (2000 Version)
TTITLE1=Take Me to the Limit
TTITLE2=Sugar Shock
TTITLE3=Love Attack '90
TTITLE4=You Gotta Love Your Woman
TTITLE5=High on Your Love
TTITLE6=She's Already Gone
TTITLE7=Our Garden of Eden 
TTITLE8=I Can't Leave Your Love Alone
TTITLE9=What's  Liittle Love Between Friends
TTITLE10=Lack of Attention
TTITLE11=Soul Survivor
TTITLE12=A Man Worth Knowing
TTITLE13=Put Love First
TTITLE14=Things a Woman Needs
TTITLE15=Daydreamin'
TTITLE16=All Because of Your Love
TTITLE17=I'm Into Something
TTITLE18=Memphis After Midnight
TTITLE19=That's How Strong a Woman's Love Is
EXTD=
EXTT0=
EXTT1=
EXTT2=
EXTT3=
EXTT4=
EXTT5=
EXTT6=
EXTT7=
EXTT8=
EXTT9=
EXTT10=
EXTT11=
EXTT12=
EXTT13=
EXTT14=
EXTT15=
EXTT16=
EXTT17=
EXTT18=
EXTT19=
PLAYORDER=
